<?xml version="1.0" encoding="UTF-8"?>
<svg id="Layer_2" data-name="Layer 2" xmlns="http://www.w3.org/2000/svg" viewBox="0 0 452.22 569.89">
  <g id="Logo_1" data-name="Logo 1">
    <path d="m381.14,388.43c16.7,59.45,33.4,118.9,50.1,178.36.77,2.74-2.99,4.34-4.43,1.89-29.4-50.05-58.8-100.11-88.19-150.16-28.04-47.73-56.08-95.47-84.11-143.19-1.03-1.75.42-3.92,2.43-3.63,17.45,2.46,34.89,4.93,52.33,7.4,2.05.29,3.5-1.95,2.4-3.7-22.27-35.4-44.55-70.8-66.82-106.2-.99-1.58-3.32-1.5-4.2.15-21.49,40.11-43,80.23-64.49,120.34-.89,1.67-3.27,1.72-4.23.09-7.3-12.38-14.6-24.77-21.9-37.15-1.01-1.72-3.54-1.55-4.33.28-20.54,48.07-41.06,96.13-61.59,144.2l-4.59.98C61.86,381.76-1.18,318.38.02,226.1,1.45,115.99,93.9,0,226.12,0c124.87,0,226.1,101.23,226.1,226.1,0,65.76-28.68,120.67-70.4,159.92-.66.62-.92,1.55-.68,2.42Z"/>
  </g>
</svg>