<svg xmlns="http://www.w3.org/2000/svg" width="19.969" height="21.94" viewBox="0 0 19.969 21.94">
<g transform="translate(-296.389 -59.03)">
<path d="M12.883,21.94a10.949,10.949,0,0,0,8.522-4.062.515.515,0,0,0-.5-.829A8.594,8.594,0,0,1,15.049,1.136a.515.515,0,0,0-.161-.953,10.971,10.971,0,1,0-2,21.757Z" transform="translate(294.476 59.03)" fill="#a67aff"/>
<path d="M5.18.278,4.157,2.351,1.87,2.684a.5.5,0,0,0-.277.855L3.248,5.151,2.857,7.429a.5.5,0,0,0,.726.528L5.629,6.881,7.675,7.956A.5.5,0,0,0,8.4,7.429L8.01,5.151,9.665,3.539a.5.5,0,0,0-.277-.855L7.1,2.351,6.078.278a.5.5,0,0,0-.9,0Z" transform="matrix(0.966, -0.259, 0.259, 0.966, 304.801, 71.631)" fill="#fcea8e"/>
</g>
</svg>